# xmcd
#
# Track frame offsets:
#	150
#	19318
#	44032
#	60410
#	78290
#	106908
#	128945
#	150045
#	168725
#	192267
#	218047
#
# Disc length: 3369
#
# Revision: 2
# Processed by: cddbd v1.5.1PL0 Copyright (c) Steve Scherf et al.
# Submitted via: EasyCDDAExtractor 7.0.5.1
# Normalized: r1:TRMNUM
#
DISCID=8c0d270b
DTITLE=Honky Tonk Brothers live part I - honky tonk brothers part I - mat. roboczy
DYEAR=2002
DGENRE=Country
TTITLE0=who's chitin' who
TTITLE1=ballada o silnych facetach
TTITLE2=thanks god for the radio (allan jackson)
TTITLE3=corrina
TTITLE4=it belongs to you (marc o'connor)
TTITLE5=a ja jadê
TTITLE6=jak ja nie lubiê swojej roboty
TTITLE7=road-life boogie
TTITLE8=summertime blues
TTITLE9=friends is low places
TTITLE10=love'o love
EXTD=
EXTT0=
EXTT1=
EXTT2=
EXTT3=
EXTT4=
EXTT5=
EXTT6=
EXTT7=
EXTT8=
EXTT9=
EXTT10=
PLAYORDER=
